<?xml version="1.0" standalone="no"?><!DOCTYPE svg PUBLIC "-//W3C//DTD SVG 1.1//EN" "http://www.w3.org/Graphics/SVG/1.1/DTD/svg11.dtd"><svg t="1722584170602" class="icon" viewBox="0 0 1024 1024" version="1.1" xmlns="http://www.w3.org/2000/svg" p-id="4884" width="16" height="16" xmlns:xlink="http://www.w3.org/1999/xlink"><path d="M810.666667 554.666667v213.333333c0 23.466667-19.2 42.666667-42.666667 42.666667H256c-23.466667 0-42.666667-19.2-42.666667-42.666667V256c0-23.466667 19.2-42.666667 42.666667-42.666667h213.333333c23.466667 0 42.666667-19.2 42.666667-42.666666s-19.2-42.666667-42.666667-42.666667H213.333333c-46.933333 0-85.333333 38.4-85.333333 85.333333v597.333334c0 46.933333 38.4 85.333333 85.333333 85.333333h597.333334c46.933333 0 85.333333-38.4 85.333333-85.333333V554.666667c0-23.466667-19.2-42.666667-42.666667-42.666667s-42.666667 19.2-42.666666 42.666667z" fill="#ffffff" p-id="4885"></path><path d="M426.666667 597.333333c-17.066667-17.066667-17.066667-42.666667 0-59.733333L804.266667 160c17.066667-17.066667 42.666667-17.066667 59.733333 0 17.066667 17.066667 17.066667 42.666667 0 59.733333L486.4 597.333333c-17.066667 17.066667-42.666667 17.066667-59.733333 0z" fill="#ffffff" p-id="4886"></path></svg>