<?xml version="1.0" standalone="no"?><!DOCTYPE svg PUBLIC "-//W3C//DTD SVG 1.1//EN" "http://www.w3.org/Graphics/SVG/1.1/DTD/svg11.dtd"><svg t="1723715423731" class="icon" viewBox="0 0 1374 1024" version="1.1" xmlns="http://www.w3.org/2000/svg" p-id="20144" xmlns:xlink="http://www.w3.org/1999/xlink" width="21.46875" height="16"><path d="M1374.202165 899.828185H0v0.686167h1374.202165v-0.686167zM1236.50188 925.992406H986.677388v0.687334H1236.50188v-0.687334zM910.326081 918.543754h-68.407868v0.687334h68.407868v-0.687334zM1066.683587 951.525306h-106.061894v0.687334h106.061894v-0.687334zM206.404558 946.907679h-62.223024v0.687334h62.223024v-0.687334zM304.770407 946.907679h-73.90421v0.687334h73.90421v-0.687334zM618.802908 935.309347H490.068312v0.687334h128.734596v-0.687334zM651.37136 777.249258H120.68263a15.695148 15.695148 0 0 1-15.666091-15.694332V15.555931A15.693165 15.693165 0 0 1 120.68263 0h530.68873a15.693631 15.693631 0 0 1 15.694331 15.693398V761.554926c0 4.162516-1.65357 8.154658-4.596622 11.09771a15.694798 15.694798 0 0 1-11.097709 4.596622zM120.68263 0.549634a15.006414 15.006414 0 0 0-14.97899 15.006297V761.554926a15.006414 15.006414 0 0 0 14.97899 15.006998h530.68873c3.978138-0.007002 7.790569-1.590555 10.602921-4.404076a15.028236 15.028236 0 0 0 4.404076-10.602922V15.555931a15.029753 15.029753 0 0 0-4.404076-10.602922 15.032203 15.032203 0 0 0-10.602921-4.403375H120.68263zM1245.884171 777.249258H715.162767a15.73004 15.73004 0 0 1-11.089541-4.604791 15.73004 15.73004 0 0 1-4.604791-11.089541V15.555931a15.726656 15.726656 0 0 1 4.652636-11.000152A15.723505 15.723505 0 0 1 715.162767 0h530.721404c4.119339 0.014354 8.075305 1.655204 11.004353 4.567098 2.929048 2.911894 4.597789 6.860041 4.632798 10.988833V761.554926c0 4.153181-1.645402 8.135986-4.58612 11.077872a15.684646 15.684646 0 0 1-11.051031 4.61646zM715.162767 0.549634a15.032203 15.032203 0 0 0-10.602922 4.403259 15.029753 15.029753 0 0 0-4.404075 10.603038V761.554926c0.007002 3.978138 1.590555 7.790569 4.404075 10.602922a15.028236 15.028236 0 0 0 10.602922 4.404076h530.721404c3.967635-0.007002 7.783567-1.590555 10.59592-4.404076 2.812353-2.812353 4.399407-6.624784 4.411077-10.602922V15.555931a15.06126 15.06126 0 0 0-4.411077-10.602922c-2.812353-2.812703-6.628285-4.396023-10.59592-4.403375H715.162767z" fill="#EBEBEB" p-id="20145"></path><path d="M144.153527 899.800178h328.599558V173.095093H144.153527v726.705085z" fill="#F0F0F0" p-id="20146"></path><path d="M144.181534 899.800178h313.016087l-0.001167-726.705085H144.181534v726.705085z" fill="#F5F5F5" p-id="20147"></path><path d="M440.706261 883.336825V189.612125H160.671726v693.7247h280.034535z" fill="#F0F0F0" p-id="20148"></path><path d="M251.148982 516.700481h-57.083769a7.370466 7.370466 0 0 1-5.181265-2.157694 7.370466 7.370466 0 0 1-2.157694-5.181264 7.370466 7.370466 0 0 1 2.157694-5.181265 7.364398 7.364398 0 0 1 5.181265-2.156527h57.083769c1.944141 0.007002 3.806596 0.781858 5.181265 2.156527a7.370466 7.370466 0 0 1 2.157694 5.181265 7.370466 7.370466 0 0 1-2.157694 5.181264 7.370466 7.370466 0 0 1-5.181265 2.157694z" fill="#FFFFFF" p-id="20149"></path><path d="M164.959107 883.336825V189.612125h-4.287381v693.7247h4.287381zM626.718341 886.031316h48.92211V673.853848h-48.92211V886.031316zM424.986256 899.497937h241.2544v-13.439781H424.986256v13.439781z" fill="#F0F0F0" p-id="20150"></path><path d="M626.718341 673.880688H415.586462v212.177468h211.131879V673.880688z" fill="#F5F5F5" p-id="20151"></path><path d="M607.45197 699.99123H434.797985v69.589989h172.653985v-69.589989zM607.45197 790.330785H434.797985v69.58999h172.653985v-69.58999z" fill="#F0F0F0" p-id="20152"></path><path d="M501.74833 705.844659h38.780135a4.777033 4.777033 0 0 0 3.353819-1.400342 4.785202 4.785202 0 0 0 1.401509-3.353819c0-1.263809-0.500622-2.476271-1.391007-3.37249-0.891551-0.895052-2.100513-1.402676-3.364321-1.409678h-38.780135a4.781001 4.781001 0 0 0-4.75416 4.782168 4.781117 4.781117 0 0 0 4.75416 4.754161zM501.74833 796.212221h38.780135a4.776099 4.776099 0 0 0 3.325812-1.371168c0.88805-0.871713 1.400342-2.056169 1.429516-3.300139a4.788002 4.788002 0 0 0-1.401509-3.354986 4.782051 4.782051 0 0 0-3.353819-1.400342h-38.780135a4.786135 4.786135 0 0 0-3.353818 1.400342 4.781817 4.781817 0 0 0-1.400342 3.354986 4.780184 4.780184 0 0 0 1.428349 3.300139 4.7782 4.7782 0 0 0 3.325811 1.371168zM537.23066 669.703002c-0.960401-0.007002-1.878792-0.390929-2.557958-1.070095a3.65816 3.65816 0 0 1-1.070095-2.556791v-110.23958c0-0.961568 0.38276-1.884627 1.063093-2.56496 0.680333-0.680333 1.602225-1.061926 2.56496-1.061926 0.960401 0.007002 1.878792 0.390929 2.556791 1.070095a3.654309 3.654309 0 0 1 1.071261 2.556791v110.23958a3.654309 3.654309 0 0 1-1.071261 2.556791 3.649058 3.649058 0 0 1-2.556791 1.070095z" fill="#F5F5F5" p-id="20153"></path><path d="M571.17378 665.416789h-67.88624v8.546753h67.88624v-8.546753zM556.03025 603.742231a1.815427 1.815427 0 0 1-1.81461-1.786603v-55.022933c0.007002-0.47845 0.200716-0.935895 0.539132-1.275478 0.338416-0.338416 0.795861-0.530963 1.275478-0.539132 0.47845 0.008169 0.935895 0.200716 1.274311 0.539132a1.846117 1.846117 0 0 1 0.539131 1.275478v54.968087c0.003501 0.240392-0.040843 0.479617-0.129531 0.702505-0.089855 0.222888-0.222888 0.425937-0.392096 0.597479a1.793254 1.793254 0 0 1-0.591644 0.400264c-0.221721 0.093356-0.459779 0.141201-0.700171 0.141201z" fill="#F0F0F0" p-id="20154"></path><path d="M484.43427 565.896825s1.346662-51.945682 52.79639-51.945682 52.76955 51.889668 52.76955 51.889668l-105.56594 0.056014zM929.813005 639.279407c1.456356 0 2.940718 0 4.42508 0.136534a63.218084 63.218084 0 0 1 40.246993 18.455339 63.223102 63.223102 0 0 1 18.266293 40.333347c0.434106 6.908353-0.253228 13.841213-2.033997 20.530179a315.544404 315.544404 0 0 0-9.894582 82.149889v80.638687a10.587518 10.587518 0 0 1-0.802863 4.070327 10.594403 10.594403 0 0 1-2.305896 3.449509 10.574332 10.574332 0 0 1-3.455344 2.296561 10.593236 10.593236 0 0 1-4.072661 0.79236H714.228039V639.279407h215.584966z" fill="#F0F0F0" p-id="20155"></path><path d="M651.151973 702.354307a63.042458 63.042458 0 0 1 5.687722-25.978676 63.040357 63.040357 0 0 1 15.89388-21.323706 63.041641 63.041641 0 0 1 23.271348-12.872643 63.057862 63.057862 0 0 1 26.509639-2.13202 63.03639 63.03639 0 0 1 25.029944 8.989027c7.609691 4.741324 14.120114 11.051031 19.097162 18.509019a63.050977 63.050977 0 0 1 9.766218 24.73704 63.050393 63.050393 0 0 1-1.303485 26.563318 316.686149 316.686149 0 0 0-9.866575 82.148723v80.638687a10.577832 10.577832 0 0 1-3.108759 7.491829 10.574915 10.574915 0 0 1-3.442507 2.291893 10.584601 10.584601 0 0 1-4.057491 0.798195h-80.830067c-1.389839 0-2.765675-0.274234-4.049322-0.806364-1.283647-0.530963-2.450598-1.310487-3.433172-2.29306a10.591486 10.591486 0 0 1-2.294227-3.433171c-0.530963-1.283647-0.805197-2.659483-0.805196-4.049322v-85.475702c0.23339-25.976342-3.057413-51.863995-9.783722-76.954621a63.182959 63.182959 0 0 1-2.28139-16.848446z" fill="#F5F5F5" p-id="20156"></path><path d="M801.132089 892.132139h229.794936V738.606824H801.132089v153.525315z" fill="#F0F0F0" p-id="20157"></path><path d="M1220.84139 773.345805H913.266799v-235.455818a47.713382 47.713382 0 0 1 47.713149-47.711981h212.144793c12.661425 0 24.797721 5.027227 33.73657 13.974245 8.950519 8.948185 13.98008 21.084481 13.980079 33.737736v235.455818z" fill="#E0E0E0" p-id="20158"></path><path d="M1160.734049 773.345805H853.159458V535.581757a45.432925 45.432925 0 0 1 13.306748-32.125009 45.432925 45.432925 0 0 1 32.12501-13.306749h216.601381a45.432925 45.432925 0 0 1 32.12501 13.306749 45.432925 45.432925 0 0 1 13.306749 32.125009v237.764048h0.109693z" fill="#F5F5F5" p-id="20159"></path><path d="M1015.920027 787.115834H804.100814c-3.64439 0-7.140577-1.448187-9.717206-4.024816a13.740855 13.740855 0 0 1-4.024816-9.717206v-34.823002c0-3.64439 1.44702-7.13941 4.024816-9.716038a13.740038 13.740038 0 0 1 9.717206-4.025983h211.819213c1.100435 0 2.156526 0.437607 2.934884 1.215963a4.15038 4.15038 0 0 1 1.214796 2.934883v54.033359a4.147346 4.147346 0 0 1-1.225299 2.917379 4.152714 4.152714 0 0 1-2.924381 1.205461z" fill="#E0E0E0" p-id="20160"></path><path d="M1243.515259 639.279407c1.458689 0 2.917379 0 4.422747 0.136534a63.217501 63.217501 0 0 1 40.23649 18.463507c10.747624 10.802471 17.224205 25.122133 18.251122 40.325179 0.466781 6.908353-0.221721 13.847047-2.030495 20.530179-6.896684 26.839886-10.222496 54.469798-9.89575 82.177896v80.63752c0 1.392173-0.280068 2.770343-0.805196 4.056324a10.702113 10.702113 0 0 1-2.298895 3.435505c-0.991909 0.98374-2.15886 1.762097-3.442507 2.291893-1.295316 0.530963-2.672319 0.801696-4.060992 0.798195H1027.903453V639.279407h215.611806z" fill="#F0F0F0" p-id="20161"></path><path d="M964.854227 702.354307a63.044208 63.044208 0 0 1 17.595296-44.118938 63.049926 63.049926 0 0 1 43.39076-19.321217 63.05226 63.05226 0 0 1 44.560045 16.443514c12.142131 11.080205 19.477589 26.464128 20.441491 42.873801a64.164832 64.164832 0 0 1-2.033997 20.531346 315.544404 315.544404 0 0 0-9.894582 82.149889v80.63752c0 2.806519-1.114439 5.498676-3.099423 7.482494a10.58075 10.58075 0 0 1-7.481327 3.099423H987.474416c-1.389839 0-2.765675-0.274234-4.049322-0.805197-1.283647-0.53213-2.450598-1.311654-3.433171-2.294226a10.591486 10.591486 0 0 1-2.294227-3.433172c-0.530963-1.283647-0.805197-2.659483-0.805197-4.049322v-85.392848a288.275546 288.275546 0 0 0-9.756882-76.954621 63.277599 63.277599 0 0 1-2.28139-16.848446z" fill="#F5F5F5" p-id="20162"></path><path d="M718.707966 899.828185h520.30286c1.003578 0 2.007157-0.199549 2.940718-0.586977 0.933561-0.387428 1.773766-0.954566 2.485607-1.668741 0.71184-0.715341 1.283647-1.563715 1.668741-2.497276 0.373425-0.933561 0.571806-1.933639 0.571806-2.943052H711.039927a7.666872 7.666872 0 0 0 2.235879 5.440328 7.677141 7.677141 0 0 0 2.491442 1.668741 7.658003 7.658003 0 0 0 2.940718 0.586977zM1026.859031 310.211902h167.352525V127.690174H1026.859031v182.521728z" fill="#E0E0E0" p-id="20163"></path><path d="M1016.881595 310.211902h171.693584V127.690174H1016.881595v182.521728z" fill="#F5F5F5" p-id="20164"></path><path d="M1174.174997 295.83856V142.064684H1031.229265v153.773876h142.945732z" fill="#FFFFFF" p-id="20165"></path><path d="M1102.714384 180.07463l39.082375 67.7217h-78.16475l39.082375-67.7217z" fill="#F5F5F5" p-id="20166"></path><path d="M792.089381 416.768583h167.351357V234.246856H792.089381v182.521727z" fill="#E0E0E0" p-id="20167"></path><path d="M782.113112 416.768583h171.692417V234.246856H782.113112v182.521727z" fill="#F5F5F5" p-id="20168"></path><path d="M939.40418 402.394074V248.621365H796.459615v153.772709h142.944565z" fill="#FFFFFF" p-id="20169"></path><path d="M850.466133 352.922329l-16.95814-29.380339a20.175659 20.175659 0 0 1 0.022172-20.156755 20.168657 20.168657 0 0 1 7.380969-7.373967 20.168541 20.168541 0 0 1 10.077794-2.701493h33.9968c3.53703 0.004668 7.011045 0.938229 10.074293 2.706161a20.20635 20.20635 0 0 1 7.380968 7.371633 20.203316 20.203316 0 0 1 0.052513 20.154421l-16.95814 29.380339a20.19363 20.19363 0 0 1-7.398473 7.443984 20.197248 20.197248 0 0 1-20.271116 0 20.196781 20.196781 0 0 1-7.39964-7.443984zM687.101083 1023.945153c294.306352 0 532.888433-13.928734 532.888433-31.112095 0-17.182195-238.582081-31.110929-532.888433-31.110929s-532.888433 13.928734-532.888433 31.110929c0 17.183362 238.582081 31.112096 532.888433 31.112095z" fill="#F5F5F5" p-id="20170"></path><path d="M869.870204 121.755059H236.307692l41.694013 862.833486h633.561345l-41.692846-862.833486z" fill="#429CFD" p-id="20171"></path><path d="M869.870204 121.755059H236.307692l41.694013 862.833486h633.561345l-41.692846-862.833486z" fill="#000000" opacity=".2" p-id="20172"></path><path d="M875.7248 121.755059H242.162288l41.720853 862.833486h633.561344l-41.719685-862.833486z" fill="#429CFD" p-id="20173"></path><path d="M842.276467 150.777144H271.130694l39.906243 794.811879 496.637082-0.660494 82.533817-73.162029-47.931369-720.989356z" fill="#000000" opacity=".2" p-id="20174"></path><path d="M846.645534 150.750304a6471.968704 6471.968704 0 0 0 57.579724 711.451861 34430.14373 34430.14373 0 0 0-135.083979 93.445981H341.984492a6488.045095 6488.045095 0 0 1-70.853798-804.897842h575.51484z" fill="#FFFFFF" p-id="20175"></path><path d="M904.225258 862.202165a34342.855986 34342.855986 0 0 0-135.083979 93.445981c9.783722-41.226065 19.980545-82.45213 30.589301-123.678195l104.494678 30.232214z" fill="#EBEBEB" p-id="20176"></path><path d="M426.002671 223.473559c1.080597 29.095603 2.345573 58.211045 3.792593 87.343991h-87.315984c-1.466858-29.132946-2.730667-58.248387-3.79376-87.343991h87.317151z m8.905008-9.207248h-105.758487c1.227633 35.233769 2.757507 70.487375 4.589621 105.758487h105.786493c-1.833281-35.253607-3.363154-70.506047-4.590787-105.758487h-0.02684z" fill="#429CFD" p-id="20177"></path><path d="M782.800447 256.261397H483.718929c-0.274234-6.56877-0.521627-13.164381-0.769021-19.733151h299.053511c0.247394 6.56877 0.522794 13.164381 0.797028 19.733151zM719.614687 297.762863H485.560378c-0.30224-6.596777-0.631321-13.165548-0.906721-19.734318h234.026302l0.934728 19.734318z" fill="#E0E0E0" p-id="20178"></path><path d="M434.577431 394.533488c1.832114 29.132946 3.875446 58.265892 6.12883 87.400005h-87.343991a6090.1376 6090.1376 0 0 1-6.12883-87.400005h87.343991z m8.630774-9.207248h-105.759653c2.162361 35.271111 4.626963 70.542222 7.393805 105.813334h105.896187a6808.071177 6808.071177 0 0 1-7.420645-105.813334h-0.109694z" fill="#429CFD" p-id="20179"></path><path d="M603.00005 427.349333h-109.936173c-0.439941-6.59561-0.906721-13.164381-1.319822-19.761158H601.680228c0.413101 6.596777 0.851875 13.165548 1.319822 19.761158zM707.081627 427.349333h-80.830067c-0.439941-6.59561-0.906721-13.164381-1.319822-19.761158h80.831234c0.411934 6.596777 0.851875 13.165548 1.318655 19.761158zM757.817181 468.877639H496.087448c-0.494787-6.59561-0.962735-13.164381-1.457522-19.761158h261.730899c0.494787 6.596777 0.961568 13.165548 1.456356 19.761158z" fill="#E0E0E0" p-id="20180"></path><path d="M447.688132 565.676271c2.619806 29.132946 5.441495 58.267059 8.465067 87.400005h-87.345158c-3.022405-29.132946-5.844093-58.267059-8.465067-87.400005h87.345158z m8.41022-9.207248h-105.786493c3.114594 35.289782 6.523259 70.570229 10.223662 105.841341h105.786494c-3.664228-35.289782-7.072893-70.570229-10.223663-105.841341z" fill="#429CFD" p-id="20181"></path><path d="M808.30534 620.287271H509.196982l1.97915 19.734318H810.28449l-1.97915-19.734318zM739.320998 578.758965H505.266689c0.604481 6.56877 1.208962 13.165548 1.84145 19.734318h234.026302c-0.604481-6.56877-1.235802-13.082694-1.813443-19.734318z" fill="#E0E0E0" p-id="20182"></path><path d="M465.35928 736.820221c3.408666 29.132946 7.008711 58.256556 10.801303 87.370831H388.816593c-3.792593-29.095603-7.392638-58.220381-10.801304-87.370831h87.343991z m8.24568-9.207248h-105.868181c4.030651 35.288615 8.382213 70.551558 13.054688 105.785327h105.675633a6648.770735 6648.770735 0 0 1-13.054687-105.785327h0.192547z" fill="#429CFD" p-id="20183"></path><path d="M824.768693 769.553213H525.660335c-0.797028-6.59561-1.594056-13.164381-2.364244-19.761158h299.081518c0.797028 6.678464 1.566049 13.247234 2.391084 19.761158zM667.010844 811.136365H530.854436c-0.851875-6.56877-1.676909-13.164381-2.500777-19.733151H664.5089c0.825035 6.56877 1.648903 13.164381 2.501944 19.733151zM748.307692 811.136365h-58.787519c-0.851875-6.56877-1.676909-13.164381-2.501944-19.733151h58.788686c0.825035 6.56877 1.759763 13.164381 2.500777 19.733151z" fill="#E0E0E0" p-id="20184"></path><path d="M387.524777 298.339337l-3.875446-6.156837c-8.465067-13.466621-25.72428-25.476887-31.68857-28.995245l4.45192-7.887426a125.030458 125.030458 0 0 1 30.947556 26.576155c13.302081-18.111088 32.980385-36.827825 59.914794-56.946069l5.690056 7.420645c-28.749019 21.519754-48.867264 41.226065-61.564864 60.190194l-3.875446 5.798583zM397.968994 469.45528l-4.039987-6.156837c-8.795314-13.466621-26.384775-25.504893-32.431918-29.023252l4.205694-7.887426a129.177337 129.177337 0 0 1 31.68857 26.604162c12.80846-18.139095 31.96397-36.855831 58.376752-57.000916 1.951143 2.47277 3.930293 4.946708 5.881436 7.447485-28.171378 21.547761-47.766828 41.226065-59.942801 60.218201-1.263809 1.923136-2.500777 3.874279-3.737746 5.798583zM413.140531 641.038003l-4.205693-6.156836c-9.179241-13.466621-27.098949-25.504893-33.227779-28.995246 1.318655-2.748171 2.748171-5.276955 4.011979-7.887425a134.92294 134.92294 0 0 1 32.377071 26.576155c12.340513-18.139095 31.001235-36.827825 56.836376-57.000917l6.10199 7.447485c-27.484043 21.547761-46.723574 41.226065-58.348745 60.218202l-3.545199 5.798582z" fill="#429CFD" p-id="20185"></path><path d="M690.206341 908.237238c-16.214792 0-25.55974-5.991129-33.80542-11.268085-8.244513-5.276955-15.336077-9.838569-29.022086-9.838568-13.687175 0-19.789165 4.782168-26.248241 9.838568-6.45791 5.057568-14.373342 11.268084-30.589302 11.268085-16.215959 0-25.55974-5.991129-33.777413-11.268085-8.217673-5.276955-15.309238-9.838569-29.023252-9.838568-13.715182 0-19.789165 4.782168-26.247075 9.838568-6.459077 5.057568-14.374509 11.268084-30.562461 11.268085-16.187952 0-25.560907-5.991129-33.80542-11.268085-8.24568-5.276955-15.309238-9.838569-29.023253-9.838568-0.357087-2.749338-0.742181-5.276955-1.099268-7.915433 16.214792 0 25.5329 5.991129 33.777413 11.268084 8.24568 5.276955 15.309238 9.838569 28.996412 9.838569 13.686008 0 19.787998-4.782168 26.247075-9.838569 6.45791-5.057568 14.401349-11.268084 30.617308-11.268084 16.214792 0 25.504893 5.991129 33.749407 11.268084 8.24568 5.276955 15.336077 9.838569 29.023252 9.838569 13.687175 0 19.789165-4.782168 26.248242-9.838569 6.45791-5.057568 14.401349-11.268084 30.616141-11.268084 16.215959 0 25.5329 5.991129 33.77858 11.268084 8.244513 5.276955 15.308071 9.838569 29.023252 9.838569 0.357087 2.638477 0.769021 5.276955 1.126109 7.915433z" fill="#EBEBEB" p-id="20186"></path><path d="M713.457851 143.109105c-9.288934-24.734705-30.753842-40.978204-53.840812-40.978204h-47.052654a17.891701 17.891701 0 0 1-16.352492-10.993617A43.978204 43.978204 0 0 0 580.208319 71.702055a43.971785 43.971785 0 0 0-24.041536-7.47164 38.945608 38.945608 0 0 0-23.125479 7.319703 38.940474 38.940474 0 0 0-14.306827 19.587166 15.885478 15.885478 0 0 1-5.848761 8.012289 15.883378 15.883378 0 0 1-9.460476 2.981328h-47.024647c-23.114977 0-43.012668 16.325186-49.883679 40.978204l-2.748171 9.811729h313.31716l-3.628052-9.811729z" fill="#263238" p-id="20187"></path><path d="M715.13476 162.59603H406.764308a10.282944 10.282944 0 0 1-6.976037-2.84036 10.284111 10.284111 0 0 1-3.165939-6.833669 9.153101 9.153101 0 0 1 2.518281-6.81383 9.131046 9.131046 0 0 1 3.051578-2.108682 9.140382 9.140382 0 0 1 3.637388-0.724676h308.370453c2.596467 0.029174 5.085575 1.040921 6.966701 2.829857a10.284811 10.284811 0 0 1 3.175275 6.817331c0.071184 1.248638-0.114361 2.500777-0.544966 3.675898a9.1496 9.1496 0 0 1-1.962813 3.155437 9.141198 9.141198 0 0 1-3.055079 2.115683 9.151818 9.151818 0 0 1-3.64439 0.727011z" fill="#429CFD" p-id="20188"></path><path d="M715.13476 162.59603H406.764308a10.282944 10.282944 0 0 1-6.976037-2.84036 10.284111 10.284111 0 0 1-3.165939-6.833669 9.153101 9.153101 0 0 1 2.518281-6.81383 9.131046 9.131046 0 0 1 3.051578-2.108682 9.140382 9.140382 0 0 1 3.637388-0.724676h308.370453c2.596467 0.029174 5.085575 1.040921 6.966701 2.829857a10.284811 10.284811 0 0 1 3.175275 6.817331c0.071184 1.248638-0.114361 2.500777-0.544966 3.675898a9.1496 9.1496 0 0 1-1.962813 3.155437 9.141198 9.141198 0 0 1-3.055079 2.115683 9.151818 9.151818 0 0 1-3.64439 0.727011z" fill="#000000" opacity=".2" p-id="20189"></path><path d="M991.954343 976.316025h-20.146252l-2.00599-46.64072h20.146252l2.00599 46.64072zM1112.85636 976.316025H1092.710108l-10.113969-46.64072h20.118245l10.141976 46.64072z" fill="#FFC3BD" p-id="20190"></path><path d="M1091.28176 973.979788h22.619022c0.399097-0.002334 0.786525 0.133032 1.096934 0.38276a1.731756 1.731756 0 0 1 0.606815 0.990742l3.98514 17.919708c0.091022 0.435273 0.082854 0.884549-0.023339 1.315155-0.10736 0.431772-0.308075 0.833203-0.590478 1.176287a2.977594 2.977594 0 0 1-1.040921 0.805196 2.980394 2.980394 0 0 1-1.28598 0.276568c-7.887426-0.1377-11.736032-0.604481-21.684294-0.604481-6.129997 0-18.744743 0.631321-27.181803 0.631321-8.438227 0-9.564335-8.244513-6.10199-9.096388 15.528625-3.408666 21.355214-8.08114 26.329928-12.561066a4.946824 4.946824 0 0 1 3.270966-1.235802zM971.945791 973.979788h21.986535c0.399097-0.002334 0.786525 0.133032 1.096934 0.38276 0.310409 0.250895 0.525128 0.60098 0.607982 0.990742l3.98514 17.919708c0.096857 0.420103 0.100358 0.856542 0.009335 1.277812-0.091022 0.42127-0.275401 0.818033-0.537964 1.15995a2.903726 2.903726 0 0 1-0.982574 0.816866 2.912711 2.912711 0 0 1-1.238135 0.318578c-7.942272-0.1377-19.402904-0.604481-29.38034-0.604481-11.653178 0-21.712301 0.631321-35.399476 0.631321-8.244513 0-10.55391-8.244513-7.090397-9.096388 15.748011-3.463512 28.611319-3.820599 42.21564-12.230819a9.454408 9.454408 0 0 1 4.72732-1.566049z" fill="#263238" p-id="20191"></path><path d="M1011.41326 241.639494c-2.749338 14.731597-4.343394 32.981552 5.963123 42.820121 0 0-5.908276 14.950983-33.282626 14.950983-25.010106 0-12.478213-14.950983-12.478213-14.950983 16.49136-3.930293 15.556631-24.241085 12.6976-35.728556l27.100116-7.091565z" fill="#FFC3BD" p-id="20192"></path><path d="M963.756125 286.520451c0.549634-3.654892 6.980704-7.915432 14.291656-9.509488 7.309785-1.594056 35.399476-5.139255 43.974236-1.594056 8.57476 3.546366-1.484362 14.044262-1.484362 14.044262l-56.78153-2.940718z" fill="#429CFD" p-id="20193"></path><path d="M963.756125 286.520451c0.549634-3.654892 6.980704-7.915432 14.291656-9.509488 7.309785-1.594056 35.399476-5.139255 43.974236-1.594056 8.57476 3.546366-1.484362 14.044262-1.484362 14.044262l-56.78153-2.940718z" fill="#FFFFFF" opacity=".4" p-id="20194"></path><path d="M969.802101 929.702145l1.044422 24.021698h20.146252l-1.044422-24.021698h-20.146252zM1102.742391 929.702145h-20.146252l5.222108 24.021698h20.146252l-5.222108-24.021698z" fill="#000000" opacity=".2" p-id="20195"></path><path d="M1059.097235 302.59871l-24.267924 16.215959s34.849842 61.976798 31.935963 71.89822c-3.98514 13.522635-9.536328 43.067515-17.094673 58.073345 0.989575 3.244125 6.019136 10.636764 8.822153 11.901739 19.238364-14.621903 38.670441-60.465595 37.9551-73.300896-1.675742-29.104939-37.350619-84.788367-37.350619-84.788367z" fill="#FFC3BD" p-id="20196"></path><path d="M1049.670601 448.842247l-19.238364-1.484362 10.085962 21.189506s16.7936 0.742181 19.596618-12.091952l-10.444216-7.613192z" fill="#B55B52" p-id="20197"></path><path d="M1144.765484 552.181643l-1.622063 3.050412-10.88299 20.586192-386.370662-204.288875 12.477046-23.636604 386.398669 204.288875zM1169.752251 504.991289l-7.97378 15.061844-4.507934 8.519913L770.873035 324.284171l12.477046-23.636604L1169.752251 504.991289z" fill="#429CFD" p-id="20198"></path><path d="M771.000232 324.214154l-12.505053 23.60743 386.239964 204.589949 12.503886-23.60743-386.238797-204.589949z" fill="#429CFD" p-id="20199"></path><path d="M771.000232 324.214154l-12.505053 23.60743 386.239964 204.589949 12.503886-23.60743-386.238797-204.589949z" fill="#000000" opacity=".2" p-id="20200"></path><path d="M729.233869 303.780832l-11.241244 21.27236 27.897144 46.47618 37.460312-70.853798-54.116212 3.105258z" fill="#429CFD" p-id="20201"></path><path d="M729.233869 303.780832l-11.241244 21.27236 27.897144 46.47618 37.460312-70.853798-54.116212 3.105258z" fill="#FFFFFF" opacity=".8" p-id="20202"></path><path d="M706.037206 305.127494l11.955419 19.926865 11.241244-21.273527-23.196663 1.346662z" fill="#429CFD" p-id="20203"></path><path d="M1014.958459 457.005074l10.059123 18.743576 15.583471-7.201259-10.087129-21.189506-15.555465 9.647189z" fill="#B55B52" p-id="20204"></path><path d="M1053.32666 289.022395c19.045817 2.748171 40.867811 68.710108 40.867811 68.710109l-40.015937 22.591015s-17.617468-31.276636-26.275081-54.637839c-9.124394-24.433632 5.001554-39.632009 25.423207-36.663285z" fill="#263238" p-id="20205"></path><path d="M1042.249956 311.641418c-8.657614-7.915432-3.352652 25.972841 0.769021 47.657135 2.11685 4.232533 4.12284 8.079973 5.826589 11.296091 9.647189-17.039827 5.332969-48.042229-6.59561-58.953226z" fill="#000000" opacity=".2" p-id="20206"></path><path d="M940.531455 290.066817s-23.773137 60.794676-1.208962 174.028654h107.819324c0.742181-16.490193-9.646022-97.183726 6.294536-175.073076a280.117038 280.117038 0 0 0-36.05997-4.56278c-15.240387-0.879881-30.519284-0.879881-45.760839 0a200.507952 200.507952 0 0 0-31.084089 5.607202z" fill="#263238" p-id="20207"></path><path d="M957.104501 318.319881l-27.154963-10.746456s-31.276636 63.846254-41.226064 67.061205c-13.384934 4.397074-40.868978 16.490193-57.523711 18.854437-2.088843 2.748171-5.331802 10.993851-4.810174 14.016255 22.94927 7.503499 71.788526-2.44593 81.902495-10.306516 23.196663-17.919708 48.812417-78.878924 48.812417-78.878925z" fill="#FFC3BD" p-id="20208"></path><path d="M960.154913 311.063777c-4.479927-10.333356-13.054687-14.648743-21.986535-13.136374-3.463512 12.669593-9.316941 40.510724-8.245679 82.45213l6.40423 3.077251s31.496023-54.720693 23.827984-72.393007z" fill="#000000" opacity=".2" p-id="20209"></path><path d="M964.442293 303.835679c6.761317 18.029402-27.484043 71.074352-27.484043 71.074352l-40.291337-21.987702a245.905636 245.905636 0 0 1 23.279517-47.135507c14.153956-21.13466 37.048378-21.712301 44.495863-1.951143z" fill="#263238" p-id="20210"></path><path d="M832.189338 393.43422l-23.965684 5.084408 12.147965 22.179081a66.298019 66.298019 0 0 0 18.001395-13.136373l-6.183676-14.127116zM796.899556 403.548189l9.564335 13.247234 13.907728 4.013147-12.147965-22.180249-11.324098 4.919868z" fill="#FFC3BD" p-id="20211"></path><path d="M965.734108 220.448821c0 1.622063-1.016415 2.749338-2.088843 2.749337-1.071262 0-1.84145-1.429516-1.731756-3.051578 0.11086-1.620896 1.017582-2.748171 2.088843-2.748171 1.072428 0 1.84145 1.429516 1.731756 3.050412z" fill="#263238" p-id="20212"></path><path d="M967.163624 220.586521a57.941129 57.941129 0 0 1-8.54792 13.412941c1.061926 0.857709 2.298895 1.472693 3.623384 1.800606a9.312857 9.312857 0 0 0 4.044654 0.09569l0.879882-15.309237z" fill="#ED847E" p-id="20213"></path><path d="M963.673272 214.842785c-0.145869-0.031508-0.285903-0.086354-0.413101-0.165707-0.106193-0.066516-0.198382-0.154038-0.270733-0.256729a0.950132 0.950132 0 0 1-0.147036-0.344251 0.91489 0.91489 0 0 1-0.001167-0.373424c0.024506-0.123697 0.073518-0.240392 0.144702-0.344251a9.571103 9.571103 0 0 1 3.18111-3.150769 9.576238 9.576238 0 0 1 4.266375-1.357165c0.250895 0.014003 0.488953 0.119029 0.66633 0.296406a1.02575 1.02575 0 0 1 0.296405 0.666329c0 0.254395-0.101525 0.499455-0.282402 0.680333a0.962735 0.962735 0 0 1-0.680333 0.281235 7.53699 7.53699 0 0 0-3.300139 1.11794 7.527538 7.527538 0 0 0-2.443596 2.482106 0.947681 0.947681 0 0 1-0.434106 0.396763c-0.182044 0.084021-0.386261 0.108526-0.582309 0.071184z" fill="#263238" p-id="20214"></path><path d="M1020.373115 219.047312c-2.364244 19.844011-2.749338 31.552036-13.384935 41.226065-16.023412 14.51221-40.07195 3.98514-43.700002-16.187952-3.242958-18.139095 1.182122-47.519435 21.135827-54.335599a27.25392 27.25392 0 0 1 13.670837-1.080598c4.57445 0.811031 8.866498 2.776178 12.467711 5.712228a27.273759 27.273759 0 0 1 8.110313 11.058033c1.716586 4.317721 2.301228 9.001864 1.700249 13.607823z" fill="#FFC3BD" p-id="20215"></path><path d="M980.382851 222.922758c-6.952697 1.374669-18.056242-14.071102-8.986694-27.181803-4.589621-2.28139-19.568611 6.733311-25.202653-1.675742-5.635209-8.41022 10.004276-12.890147 7.007544-20.008552 10.608757 2.17053-6.871011 15.417764 3.216119 14.125949 10.087129-1.291815 21.712301-19.925698 32.980385-12.284499 19.926865 13.383768 47.080661-8.933014 36.003957 19.018976 13.577481-2.749338 22.867583 13.302081 9.922589 24.432465-25.808301 22.125402-9.921422 25.038113-26.275081 26.165388-8.189666 0.604481-27.23665-9.152401-28.666166-22.592182z" fill="#263238" p-id="20216"></path><path d="M990.690534 228.116859c-0.952232 1.983818-2.290726 3.757584-3.938461 5.216274a16.493927 16.493927 0 0 1-5.65388 3.2768c-5.496342 1.896296-8.657614-3.023572-7.365799-8.438227 1.154115-4.891861 5.496342-11.762872 11.186398-11.268084a7.509333 7.509333 0 0 1 3.484517 1.260307 7.496614 7.496614 0 0 1 2.456433 2.773844c0.57414 1.115606 0.860043 2.357242 0.829703 3.611715a7.503849 7.503849 0 0 1-0.998911 3.567371z" fill="#FFC3BD" p-id="20217"></path><path d="M977.524987 464.095471s22.866416 153.910409 35.399476 211.626667c13.742022 63.213766 65.495157 273.438924 65.495156 273.438924h36.882672s-34.10766-205.195597-41.968247-267.722028c-8.491907-67.830227-26.301921-217.261876-26.301921-217.261876l-69.507136-0.081687z" fill="#429CFD" p-id="20218"></path><path d="M977.524987 464.095471s22.866416 153.910409 35.399476 211.626667c13.742022 63.213766 65.495157 273.438924 65.495156 273.438924h36.882672s-34.10766-205.195597-41.968247-267.722028c-8.491907-67.830227-26.301921-217.261876-26.301921-217.261876l-69.507136-0.081687z" fill="#FFFFFF" opacity=".2" p-id="20219"></path><path d="M1004.678783 517.909443c-1.703749-2.419091-3.242958-3.242958-4.672474-2.748171h-0.302241c-0.324413 0.142368-0.630154 0.326746-0.906721 0.549634-0.291738 0.236891-0.55897 0.504123-0.797028 0.797028l-0.439941 0.549634-0.576474 0.906721c-0.47845 0.799362-0.891551 1.636066-1.236968 2.500778-0.220554 0.522794-0.439941 1.072428-0.632488 1.622062-0.192547 0.549634-0.494787 1.401509-0.714174 2.17053-0.220554 0.770188-0.632488 2.088843-0.934729 3.216119 0 0.30224-0.1377 0.577641-0.219387 0.879881-0.082854 0.30224-0.30224 1.263809-0.43994 1.896297-0.1377 0.631321-0.247394 1.099268-0.357088 1.648902-0.247394 1.071262-0.467948 2.198537-0.687334 3.352652-0.220554 1.154115-0.467948 2.500777-0.687334 3.792593 0 0.439941-0.1377 0.879881-0.219387 1.346662-0.275401 1.65007-0.522794 3.325812-0.770188 5.057568 6.10199 38.313354 13.356928 82.232743 19.23953 112.876891 0.274234-0.989575 0.576474-2.033997 0.823868-3.160105 1.200793-5.113582 2.118017-10.287845 2.748171-15.501785 5.195268-39.494309 2.804185-106.00588-8.217673-121.753891z" fill="#000000" opacity=".2" p-id="20220"></path><path d="M939.322493 464.095471s-2.748171 150.557757-0.577641 211.983754c2.28139 63.873094 24.598172 272.998983 24.598173 272.998984h34.10766s1.236969-205.414983 2.749338-268.133963c1.648903-68.379861 9.893415-216.848775 9.893415-216.848775h-70.770945z" fill="#429CFD" p-id="20221"></path><path d="M939.322493 464.095471s-2.748171 150.557757-0.577641 211.983754c2.28139 63.873094 24.598172 272.998983 24.598173 272.998984h34.10766s1.236969-205.414983 2.749338-268.133963c1.648903-68.379861 9.893415-216.848775 9.893415-216.848775h-70.770945z" fill="#FFFFFF" opacity=".2" p-id="20222"></path><path d="M999.704068 938.635159c0.1377 0 0 11.131551 0 11.131551h-39.328601l-1.65007-12.50622 40.978671 1.374669zM1115.302291 939.459027c0.16454 0 1.84145 10.306516 1.841449 10.306516h-40.53873l-3.573206-11.817718 42.270487 1.511202z" fill="#263238" p-id="20223"></path><path d="M1084.630136 977.49698a6.045276 6.045276 0 0 1-3.875447-1.016415 2.762758 2.762758 0 0 1-0.828535-1.134277 2.744787 2.744787 0 0 1-0.159873-1.394507c0.002334-0.274234 0.078186-0.543799 0.21822-0.779523 0.140034-0.236891 0.339583-0.431772 0.578808-0.567139 2.225377-1.127275 8.7393 2.748171 9.481482 3.297805 0.075852 0.056014 0.134199 0.131866 0.168041 0.219387 0.033842 0.087521 0.04201 0.183211 0.024506 0.275401-0.014003 0.092189-0.056014 0.178544-0.120196 0.247393-0.063015 0.06885-0.145869 0.116695-0.236891 0.137701a24.222064 24.222064 0 0 1-5.250115 0.714174z m-2.995565-4.14968c-0.207717-0.046678-0.423603-0.046678-0.632488 0-0.09569 0.054847-0.173876 0.135366-0.227555 0.232224-0.05368 0.096857-0.079353 0.20655-0.074685 0.31741-0.04201 0.320912-0.003501 0.646491 0.112027 0.948732 0.114361 0.30224 0.303407 0.571806 0.548467 0.783025a9.617431 9.617431 0 0 0 7.145245 0.383927 19.252367 19.252367 0 0 0-6.871011-2.665318z" fill="#429CFD" p-id="20224"></path><path d="M1089.76939 976.810813c-0.071184 0.023339-0.148203 0.023339-0.219387 0-2.088843-1.127275-6.10199-5.497509-5.688888-7.7789 0.070017-0.348919 0.259063-0.662828 0.534463-0.88805 0.275401-0.225222 0.620818-0.348919 0.976739-0.347751 0.362922-0.054847 0.732846-0.029174 1.084098 0.075852 0.351252 0.103859 0.675665 0.284736 0.949898 0.528629 2.336237 1.896296 2.748171 7.722885 2.748171 7.970279a0.570639 0.570639 0 0 1-0.060681 0.243893c-0.037342 0.077019-0.092189 0.143535-0.158706 0.196048-0.054847 0.009336-0.11086 0.009336-0.165707 0z m-4.066826-8.24568h-0.082853c-0.632488 0-0.687334 0.357087-0.714175 0.494787-0.247394 1.319822 2.30823 4.644467 4.397074 6.211683a11.379762 11.379762 0 0 0-2.391084-6.294536c-0.175043-0.150537-0.38276-0.261397-0.605648-0.323246-0.222888-0.061848-0.457445-0.073518-0.686167-0.033842l0.082853-0.054846zM963.562411 977.49698a7.555545 7.555545 0 0 1-4.891861-1.236969 2.75634 2.75634 0 0 1-0.714174-1.049089c-0.151704-0.401431-0.208884-0.832036-0.165707-1.259141 0.001167-0.261397 0.073518-0.51696 0.208884-0.739847 0.135366-0.222888 0.330247-0.403765 0.561304-0.523961 2.44593-1.374669 10.55391 2.748171 11.460631 3.214951 0.092189 0.04201 0.166874 0.114361 0.211219 0.204217 0.045511 0.089855 0.058348 0.192547 0.036175 0.290571-0.01167 0.098024-0.056014 0.189046-0.126031 0.259063-0.06885 0.070017-0.161039 0.114361-0.259063 0.126031-2.078341 0.443442-4.195191 0.682667-6.321377 0.714174z m-3.654892-4.14968c-0.30224-0.01167-0.602147 0.044344-0.879881 0.16454-0.091022 0.05368-0.168041 0.129532-0.220554 0.220554-0.052513 0.092189-0.081687 0.196048-0.081687 0.302241a1.67831 1.67831 0 0 0 0.577641 1.511202c1.236969 1.099268 4.561614 1.291815 9.014701 0.549634a26.492485 26.492485 0 0 0-8.41022-2.748171z" fill="#429CFD" p-id="20225"></path><path d="M969.802101 976.809646h-0.192547c-2.44593-1.099268-7.256105-5.496342-6.87101-7.722886 0-0.521627 0.466781-1.208962 1.758596-1.318655a3.433405 3.433405 0 0 1 2.749337 0.797028c2.555624 2.115683 3.077251 7.530338 3.105259 7.777732 0.01167 0.08052 0 0.162206-0.033842 0.234557-0.035009 0.073518-0.089855 0.135366-0.158705 0.177377-0.10736 0.063015-0.235724 0.082854-0.357088 0.054847z m-4.919867-8.244513h-0.192547c-0.851875 0-0.906721 0.411934-0.934729 0.549634-0.219387 1.346662 3.051578 4.782168 5.497509 6.26653a10.996768 10.996768 0 0 0-2.748171-6.211683 2.750038 2.750038 0 0 0-1.622062-0.549635v-0.054846z" fill="#429CFD" p-id="20226"></path></svg>